<?xml version="1.0" encoding="utf-8"?>
<!-- Generator: Adobe Illustrator 21.0.0, SVG Export Plug-In . SVG Version: 6.00 Build 0)  -->
<svg version="1.1" id="Слой_2" xmlns="http://www.w3.org/2000/svg" xmlns:xlink="http://www.w3.org/1999/xlink" x="0px" y="0px" viewBox="0 0 50 50" enable-background="new 0 0 50 50" xml:space="preserve">
<path fill="#1991C7" d="M37.3,31.1H15.1l-0.8-3.9h22.6l1.9-9.7H12.4l-0.8-4c-0.1-0.4-0.4-0.6-0.8-0.5c-0.4,0.1-0.6,0.4-0.5,0.8
c0,0,0,0,0,0L14,32c0.1,0.3,0.3,0.5,0.6,0.5h3L17,33c-1,0.9-1.4,2.3-1,3.5c0.9,2.6,3.8,3.1,5.5,1.5c1.4-1.3,1.5-3.4,0.2-4.8
c-0.1-0.1-0.2-0.2-0.2-0.2l-0.6-0.5h8.4l-0.7,0.6c-0.9,0.9-1.4,2.2-1,3.4c0.8,2.6,3.8,3.2,5.6,1.6c1.4-1.3,1.5-3.4,0.2-4.8
c-0.1-0.1-0.2-0.2-0.2-0.2l-0.6-0.5h4.7c0.4,0,0.7-0.3,0.7-0.7C38,31.4,37.7,31.1,37.3,31.1C37.3,31.1,37.3,31.1,37.3,31.1z
M14.1,25.9l-1.4-7h24.5l-1.3,7H14.1z M21.4,35.5c0,1.1-0.9,2-2,2c-1.1,0-2-0.9-2-2s0.9-2,2-2C20.5,33.5,21.4,34.4,21.4,35.5
L21.4,35.5z M30.9,37.5c-1.1,0-1.8-0.8-1.8-2c0-1.2,0.8-2,2.1-1.9c1.2,0,1.8,0.8,1.8,2C33,36.7,32,37.5,30.9,37.5z"/>
<circle fill="none" stroke="#29ABE2" stroke-width="0.991" stroke-miterlimit="10" cx="25" cy="25" r="24.1"/>
</svg>
