<?xml version="1.0" encoding="utf-8"?>
<!-- Generator: Adobe Illustrator 21.0.0, SVG Export Plug-In . SVG Version: 6.00 Build 0)  -->
<svg version="1.1" xmlns="http://www.w3.org/2000/svg" xmlns:xlink="http://www.w3.org/1999/xlink" x="0px" y="0px" viewBox="0 0 50 50" enable-background="new 0 0 50 50" xml:space="preserve">
<g id="Слой_2">
  <circle fill="none" stroke="#29ABE2" stroke-width="0.991" stroke-miterlimit="10" cx="25" cy="25" r="24.1"/>
</g>
<g id="Слой_3">
  <path fill="#29ABE2" d="M13.1,36.8H38c0.3,0,0.5-0.2,0.5-0.5c0,0,0,0,0,0V17.9c0,0,0-0.1,0-0.1c0,0,0,0,0,0c0,0,0,0,0-0.1
    c0,0,0,0,0,0s0,0,0,0s0,0,0,0c0,0,0,0,0,0L33,11.1c-0.1-0.1-0.3-0.2-0.4-0.2H18.5c-0.2,0-0.3,0.1-0.4,0.2l-5.4,6.5c0,0,0,0,0,0
    c0,0,0,0,0,0c0,0,0,0,0,0c0,0,0,0,0,0c0,0,0,0,0,0.1c0,0,0,0,0,0c0,0,0,0.1,0,0.1v18.4C12.5,36.5,12.8,36.8,13.1,36.8z M26.1,11.9
    h6.3l4.5,5.5H26.1V11.9z M18.7,11.9H25v5.5H14.2L18.7,11.9z M13.6,18.4h23.8v17.3H13.6C13.6,35.7,13.6,18.4,13.6,18.4z"/>
  <path fill="#29ABE2" d="M25,29.9L21.2,25c-0.1-0.1-0.4-0.1-0.7,0.1c-0.3,0.2-0.4,0.5-0.3,0.7l3.8,4.9c0.1,0.1,0.4,0.1,0.7-0.1
    C25,30.3,25.1,30,25,29.9z"/>
  <path fill="#29ABE2" d="M30,23.6l-6.3,6.1c-0.2,0.2-0.1,0.5,0.1,0.8c0.3,0.3,0.6,0.3,0.8,0.2l6.3-6.1c0.2-0.2,0.1-0.5-0.1-0.8
    S30.2,23.4,30,23.6C30,23.6,30,23.6,30,23.6z"/>
</g>
</svg>
