<?xml version="1.0" encoding="utf-8"?>
<!-- Generator: Adobe Illustrator 21.0.0, SVG Export Plug-In . SVG Version: 6.00 Build 0)  -->
<svg version="1.1" id="Слой_1" xmlns="http://www.w3.org/2000/svg" xmlns:xlink="http://www.w3.org/1999/xlink" x="0px" y="0px" viewBox="0 0 50 50" enable-background="new 0 0 50 50" xml:space="preserve">
<g>
<g>
<g>
<path fill="#FF48A5" d="M26,0.2c1.2,0.6,2.3,1.3,3.4,1.7c5.2,1.5,7.3,4.1,7.8,9.4c0.2,2,0.7,4,1.2,6c0.5,2,0.2,3.6-1.3,5.1
c-0.7,0.6-1.1,1.4-1.5,2.1c-2.2,3.7-5,6.7-9.5,7.3c-1.5,0.2-3.3-0.1-4.5-0.9c-1.9-1.2-3.6-2.8-5.1-4.4c-1.5-1.7-2.8-3.6-3.9-5.5
c-0.5-0.9-0.8-2.4-0.4-3.3c1-2.6,1.1-5.4,1.5-8c0.8-4.7,3.1-6.9,7.7-7.9c1.2-0.3,2.3-1.1,3.5-1.6C25.2,0.2,25.6,0.2,26,0.2z
M25.4,29.7c3.1-0.3,5.2-2,7-4.6c1.2-1.7,2.3-3.4,3.5-5.2c0.8-1.2,0.3-3-1.1-3.6c-2.1-0.9-4.3-2-6.4-3c-2-0.9-4-1.1-6.1-0.1
c-2.3,1.1-4.6,2.1-6.9,3.2c-1.3,0.7-1.9,2-1.2,3.1c1.4,2.1,2.8,4.3,4.3,6.3C20.3,28.1,22.5,29.6,25.4,29.7z M25.4,5.3
c0,0.1,0,0.1-0.1,0.1c-0.2,0-0.4,0-0.6,0c-1,0.1-1.9,0.4-2,1.5c-0.1,0.6,0.3,1.4,0.7,1.7c0.9,0.8,3.2,0.7,3.9-0.1
c0.4-0.4,0.4-1.3,0.6-2c0-0.2-0.3-0.7-0.6-0.7C26.7,5.7,26,5.5,25.4,5.3z"/>
<path fill="#FF48A5" d="M3.1,40.5c0.1-0.6,0.2-1.2,0.5-1.7c0.6-0.9,1.2-2.1,2-2.6c3-1.2,6.1-2.2,9.3-3.3c0.1,0.1,0.2,0.3,0.4,0.4
c-0.4,0.7-0.9,1.3-1.2,2c-0.2,0.4-0.5,1.1-0.4,1.3c0.2,0.4,0.9,0.5,1.4,0.7c0.1,0.1,0.4,0,0.6,0c5.4-0.4,9,2.9,8.8,8.4
c0,1.3-0.4,2.6-0.5,3.9c-0.7,0-1.3,0-2,0c-0.5-0.1-1.1-0.2-1.6-0.3c-4.8-0.4-9.4-1.4-13.9-3.3c-1.3-0.6-2.6-1.2-3.3-2.6
C3.1,42.6,3.1,41.6,3.1,40.5z"/>
<path fill="#FF48A5" d="M27.1,49.7c-0.3-0.5-0.7-1-0.8-1.5c-0.7-4.1,0.9-7.4,3.7-10.1c0.4-0.4,1.2-0.5,1.7-0.6
c1.2-0.1,2.3,0,3.5-0.1c1.5-0.1,1.7-0.6,1.2-1.9c-0.3-0.7-0.6-1.2-0.9-1.9c0-0.1,0-0.1,0.1-0.5c3.3,1,6.9,1.2,9.6,3.4
c1.2,0.9,1.7,2.6,2.6,4c0,0.7,0,1.5,0,2.3c-0.5,2-1.9,2.9-3.6,3.4c-2.6,0.8-5.2,1.7-7.9,2.3c-2.4,0.6-4.8,0.8-7.2,1.2
C28.4,49.7,27.8,49.7,27.1,49.7z M36.8,44.5L36.8,44.5c0.7,0,1.5,0.1,2.2-0.1c0.6-0.2,1.3-0.8,1.4-1.4c0.3-1.2-0.8-2.3-2.1-2.3
c-0.9,0-2,0.2-2.9,0.1c-1.5-0.1-2.1,0.3-2.2,1.6c-0.1,1.5,0.4,2,2,2C35.7,44.5,36.3,44.5,36.8,44.5z"/>
<path fill="#FF48A5" d="M30.8,33.5c-1.1,1.5-2.2,2.9-3.3,4.4c-2.2,2.7-2.2,2.7-4.3,0.1c-1.2-1.5-2.3-2.9-3.3-4.5
c3.6,1.1,7.1,1.1,10.7-0.1C30.6,33.4,30.7,33.5,30.8,33.5z"/>
<path fill="#FF48A5" d="M31.3,17.9c0,0.9-0.4,1.6-1.5,1.6c-1.1,0-1.7-0.5-1.7-1.6c0-1,0.7-1.6,1.5-1.6
C30.6,16.4,31.4,16.8,31.3,17.9z"/>
<path fill="#FF48A5" d="M22.5,18c-0.1,0.9-0.6,1.5-1.6,1.5c-1.1,0-1.6-0.6-1.6-1.7s0.7-1.5,1.6-1.5C21.9,16.4,22.4,17,22.5,18z"
/>
<path fill="#FF48A5" d="M22.9,25.1c1.7,0,3.2,0,4.7,0C26.2,27.1,24.6,27.2,22.9,25.1z"/>
</g>
</g>
</g>
</svg>
