<?xml version="1.0" encoding="utf-8"?>
<!-- Generator: Adobe Illustrator 21.0.0, SVG Export Plug-In . SVG Version: 6.00 Build 0)  -->
<svg version="1.1" id="Слой_1" xmlns="http://www.w3.org/2000/svg" xmlns:xlink="http://www.w3.org/1999/xlink" x="0px" y="0px" height="45px" width="45px" viewBox="0 0 25 25" enable-background="new 0 0 25 25" xml:space="preserve">
<path fill="#39579F" d="M24,12.4C24,6,18.8,0.8,12.4,0.8S0.8,6,0.8,12.4"/>
<path fill="#39579F" d="M0.8,12.4C0.8,18.8,6,24,12.4,24S24,18.8,24,12.4"/>
<path fill-opacity="0" stroke="#000000" stroke-width="0.5815" stroke-opacity="0" d="M24,12.4
C24,6,18.8,0.8,12.4,0.8S0.8,6,0.8,12.4"/>
<path fill-opacity="0" stroke="#000000" stroke-width="0.5815" stroke-opacity="0" d="M0.8,12.4
C0.8,18.8,6,24,12.4,24S24,18.8,24,12.4"/>
<g>
<g>
<path fill="#FFFFFF" d="M15.4,6.6c-3.8,0-4.2,0.4-4.2,3.8c-0.1,0-0.5,0-1.2,0v2h1.2v5.8h2.4v-5.8h1.6l0.2-2h-1.7
c0-0.6,0-1,0-1c0-0.6,0.2-0.8,0.9-0.8c0.1,0,0.3,0,0.9,0C15.4,7.5,15.4,6.8,15.4,6.6z"/>
</g>
<g>
<g>
<path fill-opacity="0" stroke="#000000" stroke-width="0.5815" stroke-opacity="0" d="M15.4,6.6
c-3.8,0-4.2,0.4-4.2,3.8c-0.1,0-0.5,0-1.2,0v2h1.2v5.8h2.4v-5.8h1.6l0.2-2h-1.7c0-0.6,0-1,0-1c0-0.6,0.2-0.8,0.9-0.8
c0.1,0,0.3,0,0.9,0C15.4,7.5,15.4,6.8,15.4,6.6z"/>
</g>
</g>
</g>
</svg>
