<?xml version="1.0" encoding="utf-8"?>
<svg version="1.1" id="Слой_2" xmlns="http://www.w3.org/2000/svg" xmlns:xlink="http://www.w3.org/1999/xlink" x="0px" y="0px" width="480px" height="70px" viewBox="0 0 480 70" enable-background="new 0 0 480 70" xml:space="preserve">
<circle fill="#471F58" cx="265" cy="60.1" r="18.1"/>
<circle fill="#6A2463" cx="241.8" cy="31.6" r="28.5"/>
<circle fill="#6A2463" cx="224.2" cy="53.6" r="23.4"/>
<circle fill="#EE3384" cx="293.5" cy="31.6" r="28.5"/>
<circle fill="#6A2463" cx="246.9" cy="65.6" r="17.1"/>
<circle fill="#6A2463" cx="329.5" cy="55.4" r="28.2"/>
<circle fill="#6A2463" cx="477.2" cy="-3.5" r="26.5"/>
<circle fill="#471F58" cx="265" cy="3.1" r="29.8"/>
<circle fill="#EE3384" cx="240.3" cy="35" r="19.2"/>
<circle fill="#6A2463" cx="375.2" cy="-2.2" r="26.5"/>
<circle fill="#471F58" cx="382.2" cy="35" r="19.5"/>
<circle fill="#EE3384" cx="224.2" cy="71.8" r="8.6"/>
<circle fill="#6A2463" cx="426.2" cy="23" r="18"/>
<circle fill="#EE3384" cx="203.9" cy="73.5" r="18.1"/>
<circle fill="#471F58" cx="184.3" cy="65.6" r="9.7"/>
<circle fill="#6A2463" cx="404.2" cy="36.6" r="13.2"/>
<circle fill="#EE3384" cx="421.2" cy="46.4" r="9.8"/>
<circle fill="#6A2463" cx="171.2" cy="80.3" r="18.2"/>
<circle fill="#EE3384" cx="405.8" cy="8" r="19.2"/>
<circle fill="#EE3384" cx="442" cy="46.4" r="19.2"/>
<circle fill="#471F58" cx="461.2" cy="39.7" r="10.5"/>
<circle fill="#EE3384" cx="220.7" cy="8.9" r="7.4"/>
</svg>
