<?xml version="1.0" encoding="utf-8"?>
<!-- Generator: Adobe Illustrator 21.0.0, SVG Export Plug-In . SVG Version: 6.00 Build 0)  -->
<svg version="1.1" id="Слой_1" xmlns="http://www.w3.org/2000/svg" xmlns:xlink="http://www.w3.org/1999/xlink" x="0px" y="0px" height="45px" width="45px" viewBox="0 0 25 25" enable-background="new 0 0 25 25" xml:space="preserve">
<g>
<g>
<path fill="#2D2D2D" d="M12.5,0.6C5.9,0.6,0.6,5.9,0.6,12.5s5.3,11.9,11.9,11.9s11.9-5.3,11.9-11.9
S19.1,0.6,12.5,0.6z"/>
</g>
<g>
<g>
<path fill-opacity="0" stroke="#000000" stroke-width="0.5966" stroke-opacity="0" d="M12.5,0.6
C5.9,0.6,0.6,5.9,0.6,12.5s5.3,11.9,11.9,11.9s11.9-5.3,11.9-11.9S19.1,0.6,12.5,0.6z"/>
</g>
</g>
</g>
<g>
<g>
<path fill="#FFFFFF" d="M15.8,8.3c-0.5,0-0.9,0.4-0.9,0.9s0.4,0.9,0.9,0.9c0.5,0,0.9-0.4,0.9-0.9
S16.3,8.3,15.8,8.3z"/>
</g>
<g>
<g>
<path fill-opacity="0" stroke="#000000" stroke-width="0.5966" stroke-opacity="0" d="M15.8,8.3
c-0.5,0-0.9,0.4-0.9,0.9s0.4,0.9,0.9,0.9c0.5,0,0.9-0.4,0.9-0.9S16.3,8.3,15.8,8.3z"/>
</g>
</g>
</g>
<g>
<g>
<path fill="#FFFFFF" d="M16.4,6.2l0.3,0.1L17,6.4l0.3,0.2l0.3,0.2l0.3,0.2l0.2,0.2l0.2,0.3l0.2,0.3L18.6,8l0.1,0.3
l0.1,0.3L18.9,9l0,0.4v6.3l0,0.4l-0.1,0.3l-0.1,0.3L18.6,17l-0.2,0.3l-0.2,0.3l-0.2,0.3l-0.2,0.2l-0.3,0.2l-0.3,0.2L17,18.6
l-0.3,0.1l-0.3,0.1L16,18.9l-0.4,0H9.3l-0.4,0l-0.3-0.1l-0.3-0.1L8,18.6l-0.3-0.2l-0.3-0.2l-0.3-0.2l-0.2-0.2l-0.2-0.3l-0.2-0.3
L6.4,17l-0.1-0.3l-0.1-0.3L6.1,16l0-0.4V9.3l0-0.4l0.1-0.3l0.1-0.3L6.4,8l0.2-0.3l0.2-0.3l0.2-0.3l0.2-0.2l0.3-0.2l0.3-0.2L8,6.4
l0.3-0.1l0.3-0.1L9,6.1l0.4,0h6.3l0.4,0C16,6.1,16.4,6.2,16.4,6.2z M9.1,7.5l-0.2,0L8.6,7.6L8.4,7.8L8.2,7.9L8,8L7.9,8.2L7.8,8.4
L7.6,8.6L7.6,8.9l0,0.2l0,0.3v6.3l0,0.3l0,0.2l0.1,0.2l0.1,0.2l0.1,0.2L8,17l0.2,0.2l0.2,0.1l0.2,0.1l0.2,0.1l0.2,0l0.3,0h6.3
l0.2,0l0.2,0l0.2-0.1l0.2-0.1l0.2-0.1l0.1-0.1l0.2-0.2l0.1-0.2l0.1-0.2l0.1-0.2l0.1-0.3l0.1-0.3V9.3l0-0.3l0-0.2l-0.1-0.2
l-0.1-0.2l-0.1-0.2L17,8l-0.2-0.2l-0.2-0.1l-0.2-0.1l-0.2-0.1l-0.2,0l-0.3,0H9.3C9.3,7.5,9.1,7.5,9.1,7.5z"/>
</g>
<g>
<g>
<path fill-opacity="0" stroke="#000000" stroke-width="0.5966" stroke-opacity="0" d="M16.4,6.2l0.3,0.1L17,6.4
l0.3,0.2l0.3,0.2l0.3,0.2l0.2,0.2l0.2,0.3l0.2,0.3L18.6,8l0.1,0.3l0.1,0.3L18.9,9l0,0.4v6.3l0,0.4l-0.1,0.3l-0.1,0.3L18.6,17
l-0.2,0.3l-0.2,0.3l-0.2,0.3l-0.2,0.2l-0.3,0.2l-0.3,0.2L17,18.6l-0.3,0.1l-0.3,0.1L16,18.9l-0.4,0H9.3l-0.4,0l-0.3-0.1l-0.3-0.1
L8,18.6l-0.3-0.2l-0.3-0.2l-0.3-0.2l-0.2-0.2l-0.2-0.3l-0.2-0.3L6.4,17l-0.1-0.3l-0.1-0.3L6.1,16l0-0.4V9.3l0-0.4l0.1-0.3
l0.1-0.3L6.4,8l0.2-0.3l0.2-0.3l0.2-0.3l0.2-0.2l0.3-0.2l0.3-0.2L8,6.4l0.3-0.1l0.3-0.1L9,6.1l0.4,0h6.3l0.4,0
C16,6.1,16.4,6.2,16.4,6.2z M9.1,7.5l-0.2,0L8.6,7.6L8.4,7.8L8.2,7.9L8,8L7.9,8.2L7.8,8.4L7.6,8.6L7.6,8.9l0,0.2l0,0.3v6.3l0,0.3
l0,0.2l0.1,0.2l0.1,0.2l0.1,0.2L8,17l0.2,0.2l0.2,0.1l0.2,0.1l0.2,0.1l0.2,0l0.3,0h6.3l0.2,0l0.2,0l0.2-0.1l0.2-0.1l0.2-0.1
l0.1-0.1l0.2-0.2l0.1-0.2l0.1-0.2l0.1-0.2l0.1-0.3l0.1-0.3V9.3l0-0.3l0-0.2l-0.1-0.2l-0.1-0.2l-0.1-0.2L17,8l-0.2-0.2l-0.2-0.1
l-0.2-0.1l-0.2-0.1l-0.2,0l-0.3,0H9.3C9.3,7.5,9.1,7.5,9.1,7.5z"/>
</g>
</g>
</g>
<g>
<g>
<path fill="#FFFFFF" d="M14.2,9.7l0.7,0.5l0.5,0.7l0.3,0.8l0.1,0.9l-0.1,0.9l-0.3,0.8l-0.5,0.7l-0.7,0.5l-0.8,0.3
l-0.9,0.1l-0.9-0.1l-0.8-0.3l-0.7-0.5l-0.5-0.7l-0.3-0.8l-0.1-0.9l0.1-0.9l0.3-0.8l0.5-0.7l0.7-0.5l0.8-0.3l0.9-0.1l0.9,0.1
L14.2,9.7z M11.2,11.2l-0.4,0.6l-0.1,0.7l0.1,0.7l0.4,0.6l0.6,0.4l0.7,0.1l0.7-0.1l0.6-0.4l0.4-0.6l0.1-0.7l-0.1-0.7l-0.4-0.6
l-0.6-0.4l-0.7-0.1l-0.7,0.1C11.8,10.8,11.2,11.2,11.2,11.2z"/>
</g>
<g>
<g>
<path fill-opacity="0" stroke="#000000" stroke-width="0.5966" stroke-opacity="0" d="M14.2,9.7l0.7,0.5
l0.5,0.7l0.3,0.8l0.1,0.9l-0.1,0.9l-0.3,0.8l-0.5,0.7l-0.7,0.5l-0.8,0.3l-0.9,0.1l-0.9-0.1l-0.8-0.3l-0.7-0.5l-0.5-0.7l-0.3-0.8
l-0.1-0.9l0.1-0.9l0.3-0.8l0.5-0.7l0.7-0.5l0.8-0.3l0.9-0.1l0.9,0.1L14.2,9.7z M11.2,11.2l-0.4,0.6l-0.1,0.7l0.1,0.7l0.4,0.6
l0.6,0.4l0.7,0.1l0.7-0.1l0.6-0.4l0.4-0.6l0.1-0.7l-0.1-0.7l-0.4-0.6l-0.6-0.4l-0.7-0.1l-0.7,0.1C11.8,10.8,11.2,11.2,11.2,11.2z
"/>
</g>
</g>
</g>
</svg>
