<?xml version="1.0" encoding="utf-8"?>
<!-- Generator: Adobe Illustrator 21.0.0, SVG Export Plug-In . SVG Version: 6.00 Build 0)  -->
<svg version="1.1" id="Слой_2" xmlns="http://www.w3.org/2000/svg" xmlns:xlink="http://www.w3.org/1999/xlink" x="0px" y="0px" width="242px" height="28px" viewBox="0 0 242 28" enable-background="new 0 0 242 28" xml:space="preserve">
<g>
  <path fill="#ffffff" d="M6,28L0.1,0.8h5.1L9,19.5l4.5-18.7h5.9l4.3,19l3.8-19h5l-6,27.2h-5.3L16.4,7.7L11.4,28H6z"/>
  <path fill="#ffffff" d="M35,28V0.8h5V28H35z"/>
  <path fill="#ffffff" d="M44.9,28V1h5v22.4h12.4V28H44.9z"/>
  <path fill="#ffffff" d="M65.9,0.8H75c2.1,0,3.6,0.2,4.7,0.5c1.5,0.5,2.7,1.3,3.7,2.5c1,1.2,1.8,2.7,2.4,4.4c0.5,1.7,0.8,3.9,0.8,6.4
    c0,2.2-0.3,4.2-0.8,5.8c-0.6,2-1.5,3.6-2.7,4.8c-0.9,0.9-2,1.7-3.5,2.2c-1.1,0.4-2.6,0.6-4.4,0.6h-9.4V0.8z M70.9,5.4v18h3.7
    c1.4,0,2.4-0.1,3-0.3c0.8-0.2,1.5-0.6,2-1.1c0.5-0.5,1-1.4,1.3-2.6c0.3-1.2,0.5-2.9,0.5-5s-0.2-3.7-0.5-4.8c-0.3-1.1-0.8-2-1.4-2.6
    s-1.4-1.1-2.3-1.3c-0.7-0.2-2.1-0.3-4.1-0.3H70.9z"/>
  <path fill="#ffffff" d="M90.9,0.8h9.9c2,0,3.4,0.1,4.4,0.3c1,0.2,1.8,0.6,2.6,1.1c0.8,0.6,1.4,1.3,1.9,2.3c0.5,0.9,0.8,2,0.8,3.2
    c0,1.3-0.3,2.4-0.9,3.5c-0.6,1.1-1.5,1.9-2.5,2.4c1.5,0.5,2.7,1.3,3.5,2.5c0.8,1.2,1.2,2.5,1.2,4.1c0,1.2-0.3,2.4-0.8,3.6
    c-0.5,1.2-1.2,2.1-2.1,2.8c-0.9,0.7-2,1.1-3.4,1.3c-0.8,0.1-2.8,0.2-6,0.2h-8.4V0.8z M95.9,5.3v6.3h3.3c1.9,0,3.2,0,3.6-0.1
    c0.9-0.1,1.5-0.4,2-1s0.7-1.2,0.7-2.1c0-0.8-0.2-1.5-0.6-2.1c-0.4-0.5-1-0.8-1.9-1c-0.5-0.1-1.9-0.1-4.3-0.1H95.9z M95.9,16.1v7.3
    h4.6c1.8,0,2.9-0.1,3.4-0.2c0.7-0.1,1.3-0.5,1.8-1.1c0.5-0.6,0.7-1.3,0.7-2.3c0-0.8-0.2-1.5-0.5-2.1c-0.4-0.6-0.9-1-1.6-1.2
    c-0.7-0.3-2.2-0.4-4.4-0.4H95.9z"/>
  <path fill="#ffffff" d="M115.8,28V0.8h18.4v4.6h-13.4v6h12.4V16h-12.4v7.4h13.8V28H115.8z"/>
  <path fill="#ffffff" d="M138.9,28V0.8h10.5c2.6,0,4.6,0.2,5.8,0.7c1.2,0.5,2.2,1.4,2.9,2.6c0.7,1.2,1.1,2.7,1.1,4.3c0,2-0.5,3.7-1.6,5.1
    c-1.1,1.3-2.7,2.2-4.9,2.5c1.1,0.7,2,1.5,2.7,2.3c0.7,0.8,1.7,2.3,2.8,4.4l3,5.3h-6l-3.6-5.9c-1.3-2.1-2.2-3.4-2.6-4
    c-0.5-0.5-1-0.9-1.5-1.1c-0.5-0.2-1.4-0.3-2.5-0.3h-1V28H138.9z M143.9,12.3h3.7c2.4,0,3.9-0.1,4.5-0.3s1.1-0.6,1.4-1.2
    c0.3-0.5,0.5-1.2,0.5-2c0-0.9-0.2-1.7-0.7-2.2c-0.4-0.6-1.1-0.9-1.9-1.1c-0.4-0.1-1.6-0.1-3.6-0.1h-3.9V12.3z"/>
  <path fill="#ffffff" d="M163.9,28V0.8h10.5c2.6,0,4.6,0.2,5.8,0.7c1.2,0.5,2.2,1.4,2.9,2.6c0.7,1.2,1.1,2.7,1.1,4.3c0,2-0.5,3.7-1.6,5.1
    c-1.1,1.3-2.7,2.2-4.9,2.5c1.1,0.7,2,1.5,2.7,2.3c0.7,0.8,1.7,2.3,2.8,4.4l3,5.3h-6l-3.6-5.9c-1.3-2.1-2.2-3.4-2.6-4
    c-0.5-0.5-1-0.9-1.5-1.1c-0.5-0.2-1.4-0.3-2.5-0.3h-1V28H163.9z M168.9,12.3h3.7c2.4,0,3.9-0.1,4.5-0.3s1.1-0.6,1.4-1.2
    c0.3-0.5,0.5-1.2,0.5-2c0-0.9-0.2-1.7-0.7-2.2c-0.4-0.6-1.1-0.9-1.9-1.1c-0.4-0.1-1.6-0.1-3.6-0.1h-3.9V12.3z"/>
  <path fill="#ffffff" d="M188.7,28V0.8h5V28H188.7z"/>
  <path fill="#ffffff" d="M198.4,28V0.8h18.4v4.6h-13.4v6h12.4V16h-12.4v7.4h13.8V28H198.4z"/>
  <path fill="#ffffff" d="M220.2,19.1l4.9-0.5c0.3,1.8,0.9,3.1,1.8,4c0.9,0.8,2.1,1.3,3.6,1.3c1.6,0,2.8-0.4,3.6-1.1c0.8-0.7,1.2-1.6,1.2-2.6
    c0-0.6-0.2-1.2-0.5-1.6c-0.3-0.5-0.9-0.8-1.8-1.2c-0.6-0.2-1.9-0.6-4-1.2c-2.7-0.7-4.6-1.6-5.6-2.7c-1.5-1.5-2.3-3.3-2.3-5.5
    c0-1.4,0.4-2.7,1.1-3.9s1.7-2.1,3.1-2.8c1.3-0.6,3-0.9,4.9-0.9c3.1,0,5.4,0.7,7,2.2c1.6,1.5,2.4,3.5,2.5,6l-5,0.2
    c-0.2-1.4-0.7-2.4-1.4-3c-0.7-0.6-1.8-0.9-3.2-0.9c-1.5,0-2.6,0.3-3.4,1c-0.5,0.4-0.8,1-0.8,1.7c0,0.6,0.2,1.2,0.7,1.7
    c0.6,0.6,2.2,1.2,4.6,1.8c2.4,0.6,4.2,1.3,5.4,2c1.2,0.7,2.1,1.6,2.7,2.8c0.7,1.2,1,2.6,1,4.3c0,1.6-0.4,3-1.2,4.4
    c-0.8,1.4-1.9,2.4-3.3,3c-1.4,0.7-3.2,1-5.4,1c-3.1,0-5.5-0.8-7.2-2.4C221.6,24.5,220.6,22.2,220.2,19.1z"/>
</g>
</svg>
