<?xml version="1.0" encoding="utf-8"?>
<!-- Generator: Adobe Illustrator 21.0.0, SVG Export Plug-In . SVG Version: 6.00 Build 0)  -->
<svg version="1.1" id="Слой_1" xmlns="http://www.w3.org/2000/svg" xmlns:xlink="http://www.w3.org/1999/xlink" x="0px" y="0px" height="45px" width="45px" viewBox="0 0 25 25" enable-background="new 0 0 25 25" xml:space="preserve">
<path fill="#5181B8" d="M24.2,12.5c0-6.4-5.2-11.7-11.7-11.7S0.8,6.1,0.8,12.5s5.2,11.7,11.7,11.7
S24.2,18.9,24.2,12.5"/>
<path fill-opacity="0" stroke="#000000" stroke-width="0.5828" stroke-opacity="0" d="M24.2,12.5
c0-6.4-5.2-11.7-11.7-11.7S0.8,6.1,0.8,12.5s5.2,11.7,11.7,11.7S24.2,18.9,24.2,12.5"/>
<g>
<g>
<path fill="#FFFFFF" d="M17.6,9.1c-0.1,0-1.2,0-1.3,0c-0.2,0-0.5,0.1-0.6,0.3c-0.4,0.9-0.9,1.8-1.6,2.6
c-0.3,0.3-0.4,0.4-0.6,0.4c-0.1,0-0.2-0.1-0.2-0.3c0-0.3,0-2.3,0-2.5c0-0.3-0.1-0.5-0.3-0.5c-0.2,0-1.8,0-2,0
c-0.2,0-0.3,0.1-0.3,0.3c0,0.3,0.5,0.3,0.5,1.2c0,0.2,0,1.7,0,1.9c0,0.4-0.1,0.5-0.2,0.5c-0.4,0-1.5-1.6-2.1-3.4
C8.8,9.2,8.7,9.1,8.4,9.1c-0.1,0-1.2,0-1.3,0c-0.3,0-0.5,0.2-0.5,0.3c0,0.3,0.4,2,2,4.3C9.5,15,11,15.9,12.6,16
c0.8,0,0.9-0.2,0.9-0.5c0-0.1,0-1,0-1.2c0-0.3,0.1-0.4,0.3-0.4c0.2,0,0.5,0.1,1.3,0.8c0.9,0.9,1,1.2,1.5,1.2c0.1,0,1.2,0,1.3,0
c0.3,0,0.5-0.2,0.5-0.5c-0.3-0.6-0.6-1.1-1-1.5c-0.3-0.3-0.8-0.8-0.9-0.9c-0.1-0.2-0.1-0.3,0-0.6c-0.1,0.1,1.5-2.2,1.6-2.9
C18.1,9.2,18,9.1,17.6,9.1z"/>
</g>
<g>
<g>
<path fill-opacity="0" stroke="#000000" stroke-width="0.5828" stroke-opacity="0" d="M17.6,9.1
c-0.1,0-1.2,0-1.3,0c-0.2,0-0.5,0.1-0.6,0.3c-0.4,0.9-0.9,1.8-1.6,2.6c-0.3,0.3-0.4,0.4-0.6,0.4c-0.1,0-0.2-0.1-0.2-0.3
c0-0.3,0-2.3,0-2.5c0-0.3-0.1-0.5-0.3-0.5c-0.2,0-1.8,0-2,0c-0.2,0-0.3,0.1-0.3,0.3c0,0.3,0.5,0.3,0.5,1.2c0,0.2,0,1.7,0,1.9
c0,0.4-0.1,0.5-0.2,0.5c-0.4,0-1.5-1.6-2.1-3.4C8.8,9.2,8.7,9.1,8.4,9.1c-0.1,0-1.2,0-1.3,0c-0.3,0-0.5,0.2-0.5,0.3
c0,0.3,0.4,2,2,4.3C9.5,15,11,15.9,12.6,16c0.8,0,0.9-0.2,0.9-0.5c0-0.1,0-1,0-1.2c0-0.3,0.1-0.4,0.3-0.4c0.2,0,0.5,0.1,1.3,0.8
c0.9,0.9,1,1.2,1.5,1.2c0.1,0,1.2,0,1.3,0c0.3,0,0.5-0.2,0.5-0.5c-0.3-0.6-0.6-1.1-1-1.5c-0.3-0.3-0.8-0.8-0.9-0.9
c-0.1-0.2-0.1-0.3,0-0.6c-0.1,0.1,1.5-2.2,1.6-2.9C18.1,9.2,18,9.1,17.6,9.1z"/>
</g>
</g>
</g>
</svg>
