<?xml version="1.0" encoding="utf-8"?>
<!-- Generator: Adobe Illustrator 21.0.0, SVG Export Plug-In . SVG Version: 6.00 Build 0)  -->
<svg version="1.1" xmlns="http://www.w3.org/2000/svg" xmlns:xlink="http://www.w3.org/1999/xlink" x="0px" y="0px" viewBox="0 0 50 50" enable-background="new 0 0 50 50" xml:space="preserve">
<g>
  <circle fill="none" stroke="#29ABE2" stroke-width="2" stroke-miterlimit="10" cx="25" cy="25" r="24.1"/>
</g>
<g>
  <path fill="#29ABE2" d="M36,13.6H15.4c-1.8,0-3.2,1.3-3.2,2.9v16.9c0,1.6,1.4,2.9,3.2,2.9H36c1.8,0,3.2-1.3,3.2-2.9V16.5
    C39.2,14.9,37.8,13.6,36,13.6z M37.9,30.5h-7.7c-1.8,0-3.2-1.3-3.2-2.9s1.4-2.9,3.2-2.9h7.7V30.5z M37.9,23.5h-7.7
    c-2.5,0-4.5,1.8-4.5,4.1s2,4.1,4.5,4.1h7.7v1.7c0,1-0.9,1.7-1.9,1.7H15.4c-1.1,0-1.9-0.8-1.9-1.7V18.9c0.5,0.4,1.2,0.6,1.9,0.6H36
    c1.1,0,1.9,0.8,1.9,1.7V23.5z M37.9,18.9c-0.5-0.4-1.2-0.6-1.9-0.6H15.4c-1.1,0-1.9-0.8-1.9-1.7c0-1,0.9-1.7,1.9-1.7H36
    c1.1,0,1.9,0.8,1.9,1.7V18.9z"/>
  <path fill="#29ABE2" d="M28.6,27.5c0,1,0.8,1.8,1.8,1.8c1,0,1.8-0.8,1.8-1.8s-0.8-1.8-1.8-1.8C29.4,25.7,28.6,26.5,28.6,27.5
    L28.6,27.5z M31.1,27.5c0,0.3-0.3,0.6-0.6,0.6s-0.6-0.3-0.6-0.6c0-0.3,0.3-0.6,0.6-0.6S31.1,27.2,31.1,27.5L31.1,27.5z"/>
</g>
</svg>
